<?xml version="1.0" encoding="UTF-8" standalone="no"?>
<svg width="455px" height="157px" viewBox="0 0 455 157" version="1.1" xmlns="http://www.w3.org/2000/svg" xmlns:xlink="http://www.w3.org/1999/xlink">
    <!-- Generator: Sketch 39.1 (31720) - http://www.bohemiancoding.com/sketch -->
    <title>title</title>
    <desc>Created with Sketch.</desc>
    <defs></defs>
    <g id="Page-1" stroke="none" stroke-width="1" fill="none" fill-rule="evenodd">
        <g id="title">
            <g id="Group" transform="translate(0.000000, 25.000000)">
                <path d="M50.704,17.168 L50.704,107 L32.768,107 L32.768,17.168 L0.544,17.168 L0.544,0.752 L82.928,0.752 L82.928,17.168 L50.704,17.168 Z M127.92,107 L108.464,107 L80.496,26.136 L98.128,26.136 L118.192,87.24 L138.256,26.136 L155.888,26.136 L175.952,87.24 L196.016,26.136 L213.648,26.136 L185.68,107 L166.224,107 L147.072,51.672 L127.92,107 Z M264.872,93.016 C272.26937,93.016 278.374643,90.5586912 283.188,85.644 C288.001357,80.7293088 290.408,74.3707057 290.408,66.568 C290.408,58.7652943 288.001357,52.4066912 283.188,47.492 C278.374643,42.5773088 272.26937,40.12 264.872,40.12 C257.47463,40.12 251.369357,42.5773088 246.556,47.492 C241.742643,52.4066912 239.336,58.7652943 239.336,66.568 C239.336,74.3707057 241.742643,80.7293088 246.556,85.644 C251.369357,90.5586912 257.47463,93.016 264.872,93.016 L264.872,93.016 Z M264.872,108.216 C252.711939,108.216 242.578707,104.18804 234.472,96.132 C226.365293,88.0759597 222.312,78.2213916 222.312,66.568 C222.312,54.9146084 226.365293,45.0600403 234.472,37.004 C242.578707,28.9479597 252.711939,24.92 264.872,24.92 C277.032061,24.92 287.165293,28.9479597 295.272,37.004 C303.378707,45.0600403 307.432,54.9146084 307.432,66.568 C307.432,78.2213916 303.378707,88.0759597 295.272,96.132 C287.165293,104.18804 277.032061,108.216 264.872,108.216 L264.872,108.216 Z" id=":Two15" fill="#D74242"></path>
                <path d="M446.208,0.6 L446.208,16.864 L401.368,16.864 L401.368,43.008 C405.826689,40.5759878 410.893305,39.36 416.568,39.36 C426.498716,39.36 435.061297,42.3493034 442.256,48.328 C449.450703,54.3066966 453.048,62.4132822 453.048,72.648 C453.048,82.8827178 449.298704,91.3692996 441.8,98.108 C434.301296,104.8467 425.080055,108.216 414.136,108.216 C399.847929,108.216 388.448043,103.453381 379.936,93.928 L389.512,80.856 C390.322671,81.6666707 391.411993,82.6293278 392.78,83.744 C394.148007,84.8586722 396.959979,86.353324 401.216,88.228 C405.472021,90.102676 410.133308,91.04 415.2,91.04 C420.266692,91.04 424.877313,89.5200152 429.032,86.48 C433.186687,83.4399848 435.264,79.0066958 435.264,73.18 C435.264,67.3533042 433.060022,62.844016 428.652,59.652 C424.243978,56.459984 418.6707,54.864 411.932,54.864 C405.1933,54.864 398.78403,56.5359833 392.704,59.88 L385.104,51.672 L385.104,0.6 L446.208,0.6 Z" id="Path" fill="#664A4A"></path>
                <polygon id="Path" fill="#664A4A" points="318.832 0.752 357.44 0.752 357.44 107 340.416 107 340.416 16.712 318.832 16.712"></polygon>
            </g>
        </g>
    </g>
</svg>